HIERARCHY
ROOT Hips
{
  OFFSET 51.7007 100.971 41.2358
  CHANNELS 6 Xposition Yposition Zposition Zrotation Xrotation Yrotation
  JOINT spine
  {
    OFFSET 0 8.81705 0.507024
    CHANNELS 3 Zrotation Xrotation Yrotation
    JOINT spine1
    {
      OFFSET 0 10.7766 0
      CHANNELS 3 Zrotation Xrotation Yrotation
      JOINT spine2
      {
        OFFSET 0 10.3259 0
        CHANNELS 3 Zrotation Xrotation Yrotation
        JOINT Neck
        {
          OFFSET 0 26.511 1.26395
          CHANNELS 3 Zrotation Xrotation Yrotation
          JOINT Head
          {
            OFFSET 0 8.00966 0
            CHANNELS 3 Zrotation Xrotation Yrotation
            End Site
            {
              OFFSET 0 19.3879 -6.39386
            }
          }
        }
        JOINT RightShoulder
        {
          OFFSET -4.34795 11.1512 -0.605422
          CHANNELS 3 Zrotation Xrotation Yrotation
          JOINT RightArm
          {
            OFFSET 0 14.6258 0
            CHANNELS 3 Zrotation Xrotation Yrotation
            JOINT RightArmRoll
            {
              OFFSET 0 7.3834 0
              CHANNELS 3 Zrotation Xrotation Yrotation
              JOINT RightForeArm
              {
                OFFSET 0 21.5052 0
                CHANNELS 3 Zrotation Xrotation Yrotation
                JOINT RightForeArmRoll
                {
                  OFFSET 0 8.28532 0
                  CHANNELS 3 Zrotation Xrotation Yrotation
                  JOINT RightHand
                  {
                    OFFSET 0 16.6268 0
                    CHANNELS 3 Zrotation Xrotation Yrotation
                    End Site
                    {
                      OFFSET 0 0 0
                    }
                  }
                }
              }
            }
          }
        }
        JOINT LeftShoulder
        {
          OFFSET 4.34795 11.1512 -0.605422
          CHANNELS 3 Zrotation Xrotation Yrotation
          JOINT LeftArm
          {
            OFFSET 0 14.6258 0
            CHANNELS 3 Zrotation Xrotation Yrotation
            JOINT LeftArmRoll
            {
              OFFSET 0 7.3834 0
              CHANNELS 3 Zrotation Xrotation Yrotation
              JOINT LeftForeArm
              {
                OFFSET 0 21.5052 0
                CHANNELS 3 Zrotation Xrotation Yrotation
                JOINT LeftForeArmRoll
                {
                  OFFSET 0 8.28531 0
                  CHANNELS 3 Zrotation Xrotation Yrotation
                  JOINT LeftHand
                  {
                    OFFSET 0 16.6268 0
                    CHANNELS 3 Zrotation Xrotation Yrotation
                    End Site
                    {
                      OFFSET 0 0 0
                    }
                  }
                }
              }
            }
          }
        }
      }
    }
  }
  JOINT RightUpLeg
  {
    OFFSET -7.8151 -1.43309 -1.20217
    CHANNELS 3 Zrotation Xrotation Yrotation
    JOINT RightUpLegRoll
    {
      OFFSET 0 19.4959 0
      CHANNELS 3 Zrotation Xrotation Yrotation
      JOINT RightLeg
      {
        OFFSET 0 -24.1427 0
        CHANNELS 3 Zrotation Xrotation Yrotation
        JOINT RightLegRoll
        {
          OFFSET 0 24.2217 0
          CHANNELS 3 Zrotation Xrotation Yrotation
          JOINT RightFoot
          {
            OFFSET 0 20.1605 0
            CHANNELS 3 Zrotation Xrotation Yrotation
            JOINT RightToeBase
            {
              OFFSET 0 16.8532 0
              CHANNELS 3 Zrotation Xrotation Yrotation
              End Site
              {
                OFFSET 0.00714343 8.16186 -0.940781
              }
            }
          }
        }
      }
    }
  }
  JOINT LeftUpLeg
  {
    OFFSET 7.8151 -1.43309 -1.20217
    CHANNELS 3 Zrotation Xrotation Yrotation
    JOINT LeftUpLegRoll
    {
      OFFSET 0 19.4959 0
      CHANNELS 3 Zrotation Xrotation Yrotation
      JOINT LeftLeg
      {
        OFFSET 0 24.1426 0
        CHANNELS 3 Zrotation Xrotation Yrotation
        JOINT LeftLegRoll
        {
          OFFSET 0 24.4456 0
          CHANNELS 3 Zrotation Xrotation Yrotation
          JOINT LeftFoot
          {
            OFFSET 0 19.9366 0
            CHANNELS 3 Zrotation Xrotation Yrotation
            JOINT LeftToeBase
            {
              OFFSET 0 16.8532 0
              CHANNELS 3 Zrotation Xrotation Yrotation
              End Site
              {
                OFFSET -0.0320138 8.16186 -0.940781
              }
            }
          }
        }
      }
    }
  }
}
MOTION
Frames: 9
Frame Time: 0.00208333
51.3601 51.6791 10.7648 1.68527 -23.8544 2.4408 -0.187393 2.5122 -0.0078125 -0.377756 9.02722 0.0172216 -0.379106 10.6723 0.0236901 0.227922 29.2706 3.66777 -4.96638 -18.7595 2.32253 74.5211 -0.840243 -2.23611 96.7752 33.0214 -3.01592 6.62086e-032 3.18055e-015 -1.19271e-015 18.102 40.6718 -7.9452 -2.29693e-005 -1.35803e-005 -3.01212 8.02887 -4.95084 0.697412 -68.8596 -3.97273 3.22302 -103.354 31.771 13.9983 5.96354e-015 0 4.77083e-015 -17.1125 44.0253 8.26453 3.23876e-006 -6.52935e-006 3.00705 -8.02885 -4.95108 -0.697515 134.446 66.3069 48.1069 180 1.52519e-005 178.276 -9.53432 75.433 10.9969 4.47441e-006 -4.94401e-006 2.16884 -27.957 71.4746 23.5988 8.13662 25.2346 -3.48327 -146.387 69.1545 -34.147 4.54188e-006 -4.6773e-006 -1.29924 164.508 -73.8882 161.451 1.01451e-006 -3.05325e-006 -1.72709 20.6751 72.3474 -23.7467 -8.12659 25.2332 3.48351 
51.3179 51.6119 10.7659 1.69098 -23.8568 2.43958 -0.188674 2.51272 -0.00751827 -0.380359 9.02837 0.0180385 -0.381727 10.6735 0.0245532 0.217316 29.3041 3.66926 -4.9835 -18.7784 2.31449 74.5159 -0.839167 -2.23513 96.7769 33.0194 -3.02594 9.93923e-015 -3.18055e-015 5.56597e-015 18.1055 40.6768 -7.94645 -2.29693e-005 -1.35803e-005 -3.01212 8.02887 -4.95084 0.697412 -68.8613 -3.97983 3.22669 -103.357 31.7725 14.0008 -9.93923e-015 0 -4.77083e-015 -17.1119 44.027 8.26467 3.23876e-006 -6.52935e-006 3.00705 -8.02885 -4.95108 -0.697515 134.45 66.307 48.0992 180 1.52519e-005 178.276 -9.54927 75.4347 11.0144 4.47441e-006 -4.94401e-006 2.16891 -27.953 71.4727 23.5961 8.13662 25.2346 -3.48327 -146.401 69.1496 -34.1366 4.54188e-006 -4.6773e-006 -1.29934 164.507 -73.8902 161.451 1.01451e-006 -3.05325e-006 -1.7271 20.6729 72.3483 -23.7473 -8.12659 25.2332 3.48351 
51.3358 51.6409 10.765 1.69766 -23.86 2.43846 -0.190191 2.51337 -0.00712067 -0.383444 9.02986 0.0191047 -0.384834 10.675 0.0256743 0.20984 29.3373 3.66937 -5.00301 -18.7975 2.30563 74.511 -0.839098 -2.23463 96.7787 33.0178 -3.03606 1.19271e-015 -6.36111e-015 -1.19271e-015 18.1089 40.6812 -7.94752 -2.29693e-005 -1.35803e-005 -3.01212 8.02887 -4.95084 0.697412 -68.8621 -3.98673 3.2302 -103.361 31.7741 14.0035 -5.56597e-015 9.54166e-015 -0 -17.111 44.0287 8.26469 3.23876e-006 -6.52935e-006 3.00705 -8.02885 -4.95108 -0.697515 134.454 66.3062 48.0903 180 1.52519e-005 178.276 -9.5656 75.4367 11.0334 4.47441e-006 -4.94401e-006 2.16901 -27.949 71.4709 23.5933 8.13662 25.2346 -3.48327 -146.417 69.1434 -34.1242 4.54188e-006 -4.6773e-006 -1.29946 164.507 -73.8925 161.452 1.01451e-006 -3.05325e-006 -1.72711 20.6713 72.3494 -23.7483 -8.12659 25.2332 3.48351 
51.3198 51.6043 10.7599 1.705 -23.8639 2.43741 -0.191874 2.51411 -0.00665071 -0.386866 9.03158 0.0203455 -0.388282 10.6767 0.0269761 0.204557 29.3703 3.66851 -5.02421 -18.8168 2.2962 74.5064 -0.839733 -2.23447 96.7806 33.0165 -3.04625 -2.38542e-015 9.54166e-015 -4.37326e-015 18.1124 40.6851 -7.94848 -2.29693e-005 -1.35803e-005 -3.01212 8.02887 -4.95084 0.697412 -68.8623 -3.99349 3.23361 -103.366 31.7755 14.0063 -1.31198e-014 3.18055e-015 -4.77083e-015 -17.1099 44.0303 8.26462 3.23876e-006 -6.52935e-006 3.00705 -8.02885 -4.95108 -0.697515 134.458 66.3046 48.0807 180 1.52519e-005 178.276 -9.58289 75.4389 11.0536 4.47441e-006 -4.94401e-006 2.16913 -27.945 71.469 23.5905 8.13662 25.2346 -3.48327 -146.435 69.1362 -34.1103 4.54188e-006 -4.6773e-006 -1.29959 164.507 -73.8951 161.453 1.01451e-006 -3.05325e-006 -1.72712 20.67 72.3508 -23.7496 -8.12659 25.2332 3.48351 
51.3179 51.6006 10.7644 1.71272 -23.868 2.43641 -0.193651 2.51491 -0.0061394 -0.390482 9.03344 0.0216859 -0.391925 10.6785 0.0283811 0.200529 29.4033 3.6671 -5.04637 -18.8363 2.28644 74.502 -0.84077 -2.2345 96.7825 33.0154 -3.05648 -5.56597e-015 0 -7.95139e-016 18.1159 40.6887 -7.94937 -2.29693e-005 -1.35803e-005 -3.01212 8.02887 -4.95084 0.697412 -68.8622 -4.00017 3.23696 -103.372 31.777 14.0091 7.95139e-016 0 2.38542e-015 -17.1087 44.0318 8.2645 3.23876e-006 -6.52935e-006 3.00705 -8.02885 -4.95108 -0.697515 134.462 66.3027 48.0707 180 1.52519e-005 178.276 -9.60074 75.4413 11.0744 4.47441e-006 -4.94401e-006 2.16927 -27.9411 71.4671 23.5878 8.13662 25.2346 -3.48327 -146.455 69.1285 -34.0957 4.54188e-006 -4.6773e-006 -1.29974 164.507 -73.8978 161.454 1.01451e-006 -3.05325e-006 -1.72714 20.6689 72.3523 -23.7511 -8.12659 25.2332 3.48351 
51.3692 51.6875 10.7651 1.72054 -23.8722 2.43541 -0.195451 2.51573 -0.00561776 -0.394146 9.03532 0.0230514 -0.395617 10.6804 0.029812 0.196816 29.4363 3.66555 -5.06878 -18.8558 2.27659 74.4976 -0.841909 -2.23458 96.7845 33.0144 -3.06672 4.57205e-015 6.36111e-015 -7.95139e-016 18.1194 40.6923 -7.95025 -2.29693e-005 -1.35803e-005 -3.01212 8.02887 -4.95084 0.697412 -68.862 -4.00683 3.24029 -103.377 31.7784 14.0119 3.18055e-015 -3.18055e-015 4.77083e-015 -17.1074 44.0333 8.26437 3.23876e-006 -6.52935e-006 3.00705 -8.02885 -4.95108 -0.697515 134.466 66.3006 48.0606 180 1.52519e-005 178.276 -9.61872 75.4436 11.0954 4.47441e-006 -4.94401e-006 2.16942 -27.9372 71.4652 23.585 8.13662 25.2346 -3.48327 -146.475 69.1206 -34.0808 4.54188e-006 -4.6773e-006 -1.29989 164.507 -73.9006 161.455 1.01451e-006 -3.05325e-006 -1.72716 20.6679 72.3538 -23.7526 -8.12659 25.2332 3.48351 
51.3611 51.6706 10.7624 1.72817 -23.8762 2.43439 -0.197205 2.51651 -0.00511678 -0.397713 9.03715 0.024367 -0.399211 10.6822 0.0311912 0.192477 29.4693 3.66427 -5.09071 -18.8752 2.26691 74.4931 -0.842846 -2.23456 96.7864 33.0132 -3.07695 -2.38542e-015 0 -4.37326e-015 18.1229 40.696 -7.95116 -2.29693e-005 -1.35803e-005 -3.01212 8.02887 -4.95084 0.697412 -68.862 -4.01354 3.24365 -103.382 31.7799 14.0147 -2.18663e-014 9.54166e-015 -7.95139e-015 -17.1062 44.0349 8.26426 3.23876e-006 -6.52935e-006 3.00705 -8.02885 -4.95108 -0.697515 134.47 66.2987 48.0506 180 1.52519e-005 178.276 -9.63644 75.4459 11.1161 4.47441e-006 -4.94401e-006 2.16955 -27.9332 71.4633 23.5822 8.13662 25.2346 -3.48327 -146.494 69.113 -34.0664 4.54188e-006 -4.6773e-006 -1.30003 164.507 -73.9033 161.456 1.01451e-006 -3.05325e-006 -1.72717 20.6668 72.3552 -23.7539 -8.12659 25.2332 3.48351 
51.329 51.602 10.7611 1.73532 -23.8799 2.43332 -0.19884 2.51723 -0.0046675 -0.40104 9.0388 0.0255579 -0.402563 10.6839 0.0324415 0.186573 29.5024 3.66369 -5.11146 -18.8945 2.25763 74.4885 -0.843279 -2.23431 96.7882 33.0119 -3.08712 2.64384e-014 6.36111e-015 1.51076e-014 18.1264 40.7 -7.95215 -2.29693e-005 -1.35803e-005 -3.01212 8.02887 -4.95084 0.697412 -68.8624 -4.02034 3.24709 -103.387 31.7814 14.0174 -2.50469e-014 1.27222e-014 -1.27222e-014 -17.1052 44.0365 8.26422 3.23876e-006 -6.52935e-006 3.00705 -8.02885 -4.95108 -0.697515 134.474 66.2974 48.0413 180 1.52519e-005 178.276 -9.6535 75.4481 11.136 4.47441e-006 -4.94401e-006 2.16967 -27.9293 71.4614 23.5794 8.13662 25.2346 -3.48327 -146.512 69.1061 -34.053 4.54188e-006 -4.6773e-006 -1.30016 164.507 -73.9058 161.457 1.01451e-006 -3.05325e-006 -1.72719 20.6654 72.3565 -23.7552 -8.12659 25.2332 3.48351 
51.3383 51.6174 10.7634 1.7417 -23.8829 2.43217 -0.200286 2.51784 -0.00430091 -0.40398 9.04019 0.0265494 -0.405524 10.6853 0.0334852 0.178159 29.5357 3.66422 -5.13029 -18.9135 2.24901 74.4835 -0.842908 -2.23366 96.79 33.0102 -3.0972 2.98177e-015 6.36111e-015 2.38542e-015 18.1299 40.7046 -7.95328 -2.29693e-005 -1.35803e-005 -3.01212 8.02887 -4.95084 0.697412 -68.8635 -4.0273 3.25065 -103.391 31.7829 14.0201 -2.5842e-014 1.27222e-014 -1.27222e-014 -17.1044 44.0381 8.26428 3.23876e-006 -6.52935e-006 3.00705 -8.02885 -4.95108 -0.697515 134.478 66.2968 48.0328 180 1.52519e-005 178.276 -9.66944 75.4499 11.1545 4.47441e-006 -4.94401e-006 2.16977 -27.9253 71.4595 23.5767 8.13662 25.2346 -3.48327 -146.528 69.1003 -34.0412 4.54188e-006 -4.6773e-006 -1.30028 164.507 -73.908 161.458 1.01451e-006 -3.05325e-006 -1.7272 20.6636 72.3576 -23.7561 -8.12659 25.2332 3.48351 
